<svg width="264" height="254" viewBox="0 0 264 254" fill="none" xmlns="http://www.w3.org/2000/svg">
<path d="M66.0004 21.0003C33 41.9999 -5.57828 101.343 7.00037 146.5C17.9128 185.675 50.6386 236.767 117.5 240.657L125 247.5C126.864 248.897 138.199 252.23 167.513 246.56C204.155 239.473 229.226 219.983 247 189C264.774 158.017 267.882 89.156 226.5 42.0002C185.118 -5.15555 103.721 -3.00289 66.0004 21.0003Z" fill="#EFEDE1"/>
<path d="M150.559 238.927C138.714 240.745 127.709 241.251 117.5 240.657M117.5 240.657C50.6386 236.767 17.9128 185.675 7.00037 146.5C-5.57828 101.343 33 41.9999 66.0004 21.0003C103.721 -3.00289 185.118 -5.15555 226.5 42.0002C267.882 89.156 264.774 158.017 247 189C229.226 219.983 204.155 239.473 167.513 246.56C138.199 252.23 126.864 248.897 125 247.5L117.5 240.657Z" stroke="#007AFF" stroke-width="8" stroke-linecap="round"/>
<path d="M74.5 33.5001C73.5 33.1667 71.5 33.5001 71.5 37.5001C71.5 42.5001 75 59 90.5 58.5C106 58 114 34 114 28C116.5 30 121.1 35.3 119.5 40.5C117.5 47 112.5 57 105 60.5C97.5 64 88 68.5 77.5 60.5C67 52.5 67.0367 48.9516 66.5 46C65.5 40.5 67.5 35.4999 68 34.5C68.4 33.7 69.8333 34.1667 70.5 34.5" stroke="#007AFF" stroke-width="8" stroke-linecap="round"/>
<path d="M160.5 24.4999C159.833 24.3333 158.5 24.7999 158.5 27.9999C158.5 31.9999 162.5 54 168.5 54.5C174.5 55 184.5 50.5 187 44.5C189.5 38.5 190.5 31 191.5 31C192.5 31 194.5 31 194.5 33C194.5 35 195.5 44.5 192.5 49C189.5 53.5 184.5 61 179 61C173.5 61 164.5 56 163 52C161.5 48 155.5 28.4998 156.5 27.9999" stroke="#007AFF" stroke-width="8" stroke-linecap="round"/>
<path d="M34.5 121C37.5 116.5 42.5 110 42.5 106.5C45.5 112 51.8 123.2 53 124C54.5 125 56.5 77.5 57.5 74.5C58.5 71.5 81.5 74.5 86 75.5C90.5 76.5 99 74.5 101.5 74.5C104 74.5 117.5 72.5 117.5 74" stroke="#007AFF" stroke-width="8" stroke-linecap="round"/>
<path d="M101 116.5C99 117.5 97.5 118.5 95.5 119C93.5 119.5 88.5 120 86 119C83.5 118 73.5 109 74.5 98C75.5 87 79.5 77.5 89 77.5C98.5 77.5 109 84.5 112 98C115 111.5 103.5 124 101.5 124.5C99.5 125 97.4999 125.5 95.5 124.5C93.5 123.5 88.2375 122.5 86 120" stroke="#007AFF" stroke-width="8" stroke-linecap="round"/>
<path d="M139.5 121C140 119.333 141.5 115 143.5 111C145.5 107 148 103.667 149 102.5C150.167 104.167 152.6 108.2 153 111C153.5 114.5 155 123.5 156.5 124C158 124.5 161.5 73.5 160.5 69.5C159.5 65.5 173 70.5 180.5 70.5C188 70.5 198 67.5 203.5 68.5C207.9 69.3 213.333 70.1667 215.5 70.5" stroke="#007AFF" stroke-width="8" stroke-linecap="round"/>
<path d="M208.5 123C207.167 123.833 204 125.6 202 126C199.5 126.5 185.5 126 183.5 124.5C181.5 123 164.5 110 165 98C165.5 86 174 74.5 187.5 74.5C201 74.5 215 94.5 215 107.5C215 120.5 210 131 206.5 132.5C203 134 195 134.5 192 133.5" stroke="#007AFF" stroke-width="8" stroke-linecap="round"/>
<path d="M47.5 152C47.1667 152.5 46.2 153.5 45 153.5C43.5 153.5 37 152.5 37.5 149.5C38 146.5 41 144 43 144C45 144 63.5 147.5 67 152C70.5 156.5 66 169 60 171.5C54 174 44.5 174.5 41 171.5C37.5 168.5 34.5 161 35 154.5C35.5 148 39.5 135.5 43.5 134.5C47.5 133.5 54 132.5 58 133.5C62 134.5 74 143.5 74.5 155.5C75 167.5 67 181 59 183.5C51 186 41 189 33 184.5C26.6 180.9 24.3333 174.333 24 171.5" stroke="#007AFF" stroke-width="8" stroke-linecap="round"/>
<path d="M233 157C230.333 155.667 224.3 153.4 221.5 155C218 157 215.5 165 217.5 169.5C219.5 174 228.5 180 237 174C245.5 168 245 167.5 245 165.5C245 163.5 243.5 146 237 143C230.5 140 219 138 214 142.5C209 147 206 180.5 207.5 184.5C209 188.5 214 200 223 200C230.2 200 237 193 239.5 189.5" stroke="#007AFF" stroke-width="8" stroke-linecap="round"/>
<path d="M122.5 221C117.5 222.667 105.5 224.4 97.5 218C87.5 210 79 191.5 82.5 175.5C86 159.5 95 138.5 112 133C129 127.5 144 125.5 157.5 132C171 138.5 182 142 187.5 153.5C193 165 202 182 192.5 200C183 218 170.5 215.5 169 215.5C167.5 215.5 159 211.5 158 207.5C157 203.5 159.5 192.5 163 187.5C166.5 182.5 175.5 173.5 176 170C176.5 166.5 175 161.5 169.5 158C164 154.5 149 145.5 142.5 145.5C136 145.5 112.5 149.5 107.5 163C102.5 176.5 102 186 106 190C110 194 113.5 200 116.5 201C119.5 202 129 208 128 213C127 218 121 226 115 223.5C110.2 221.5 109.667 219 110 218" stroke="#007AFF" stroke-width="8" stroke-linecap="round"/>
</svg>
